<?xml version="1.0" encoding="UTF-8"?>
<svg id="Layer_1" data-name="Layer 1" xmlns="http://www.w3.org/2000/svg" version="1.1" viewBox="0 0 48 48">
  <defs>
    <style>
      .cls-1 {
        fill: #212121;
      }

      .cls-1, .cls-2 {
        stroke-width: 0px;
      }

      .cls-2 {
        fill: #ff5308;
      }
    </style>
  </defs>
  <polygon class="cls-1" points="43.82 32.58 13.02 32.56 13.02 32.57 .5 32.56 0 34.89 38.01 34.92 38.01 34.91 43.32 34.91 43.82 32.58"/>
  <polygon class="cls-2" points="26.66 17.96 26.16 20.3 41.29 20.31 41.29 20.3 44.08 20.31 43.54 22.85 25.61 22.83 25.11 25.17 38.18 25.18 38.18 25.17 43.04 25.18 42.49 27.71 24.57 27.7 24.07 30.04 38.98 30.05 38.98 30.04 44.36 30.05 44.37 30.04 44.38 30.04 46.45 20.31 46.95 17.98 26.66 17.96"/>
  <path class="cls-2" d="M2.59,22.82h0l-.5,2.33h0l-1.04,4.87h2.38s1.04-4.87,1.04-4.87h15.87s0,0,0,0h2.38s1.05-4.87,1.05-4.87h0l.5-2.33H3.63l-1.04,4.86ZM5.52,20.28h15.87s-.54,2.55-.54,2.55h-10.94s0,0,0,0h-4.93s.54-2.55.54-2.55Z"/>
  <polygon class="cls-1" points="47.88 13.67 48 13.11 10.81 13.08 10.81 13.09 4.7 13.08 4.38 14.48 4.18 15.41 42.32 15.44 42.32 15.43 47.5 15.44 47.88 13.67"/>
</svg>